<svg version="1.1" xmlns="http://www.w3.org/2000/svg" xmlns:xlink="http://www.w3.org/1999/xlink" width="25mm" height="25mm" viewBox="0,0,256,256"><defs><radialGradient cx="0.88381" cy="0.97305" r="0.82493" fx="0.88381" fy="0.97305" gradientUnits="userSpaceOnUse" id="color-1"><stop offset="0" stop-color="#ffffff"></stop><stop offset="0.30196" stop-color="#f3f516"></stop><stop offset="0.58823" stop-color="#fcce00"></stop><stop offset="1" stop-color="#ff9e67"></stop></radialGradient></defs><g fill="none" fill-rule="none" stroke="none" stroke-width="1" stroke-linecap="butt" stroke-linejoin="miter" stroke-miterlimit="10" stroke-dasharray="" stroke-dashoffset="0" font-family="none" font-weight="none" font-size="none" text-anchor="none" style="mix-blend-mode: normal"><g transform="scale(122.91442,122.91442)"><g id="Layer_x0020_1"><g id="_280012488"><rect x="0" y="0" width="2.08275" height="2.08275" id="_280272824" fill="#015670" fill-rule="evenodd"></rect><g><rect x="0.05475" y="0.05475" width="1.97325" height="1.97325" id="_281586816" fill="#015670" fill-rule="evenodd"></rect><rect x="0.23073" y="0.23073" width="1.69027" height="1.69027" id="_281586744" fill="#67aabe" fill-rule="evenodd"></rect><g><circle cx="1.14142" cy="1.17762" r="0.58718" id="_281586672" fill="none" fill-rule="evenodd"></circle><circle cx="1.14521" cy="1.16625" r="0.56824" id="_281586600" fill="url(#color-1)" fill-rule="evenodd"></circle><path d="M1.14142,0.55482h0.00003v0.00013c0.17203,0.00001 0.32772,0.06969 0.44034,0.18232c0.1126,0.1126 0.18227,0.26827 0.18229,0.44028h0.00014v0.00007v0.00003h-0.00014c-0.00001,0.17203 -0.06969,0.32772 -0.18231,0.44034c-0.1126,0.1126 -0.26827,0.18227 -0.44028,0.18229v0.00014h-0.00007h-0.00003v-0.00014c-0.17203,-0.00001 -0.32772,-0.06969 -0.44034,-0.18231c-0.11259,-0.1126 -0.18226,-0.26827 -0.18229,-0.44028h-0.00013v-0.00007v-0.00003h0.00013c0.00002,-0.17203 0.06969,-0.32772 0.18232,-0.44034c0.1126,-0.1126 0.26827,-0.18226 0.44028,-0.18229v-0.00013zM1.14145,0.62592v0.00014h-0.00003h-0.00007v-0.00014c-0.15216,0.00002 -0.29003,0.06182 -0.38991,0.1617c-0.0999,0.09989 -0.1617,0.23779 -0.16171,0.38997h0.00014v0.00003v0.00007h-0.00014c0.00002,0.15216 0.06182,0.29004 0.1617,0.38992c0.09989,0.0999 0.23779,0.16171 0.38997,0.16171v-0.00013h0.00003h0.00007v0.00013c0.15216,-0.00002 0.29003,-0.06181 0.38992,-0.16169c0.0999,-0.0999 0.16171,-0.2378 0.16171,-0.38998h-0.00013v-0.00003v-0.00007h0.00013c-0.00002,-0.15216 -0.06181,-0.29003 -0.16169,-0.38991c-0.0999,-0.0999 -0.2378,-0.1617 -0.38998,-0.16171z" id="_281586528" fill="#000000" fill-rule="nonzero"></path><path d="M1.38095,1.32378c0.01227,0.01436 0.01907,0.0301 0.01907,0.0466c0,0.06754 -0.11345,0.12231 -0.25334,0.12231c-0.13989,0 -0.25334,-0.05477 -0.25334,-0.12231c0,-0.0165 0.0068,-0.03224 0.01906,-0.0466c0.03797,0.04443 0.12856,0.07572 0.23428,0.07572c0.10572,0 0.19631,-0.03129 0.23428,-0.07572z" id="_281586456" fill="#000000" fill-rule="evenodd"></path><circle cx="0.94669" cy="1.03934" r="0.10525" id="_281586384" fill="#000000" fill-rule="evenodd"></circle><circle cx="1.31758" cy="1.03934" r="0.10525" id="_281586312" fill="#000000" fill-rule="evenodd"></circle></g></g></g></g></g></g></svg>