<svg version="1.1" xmlns="http://www.w3.org/2000/svg" xmlns:xlink="http://www.w3.org/1999/xlink" width="25mm" height="25mm" viewBox="0,0,256,256"><defs><radialGradient cx="0.50477" cy="0.51183" r="0.15459" fx="0.50477" fy="0.51183" gradientUnits="userSpaceOnUse" id="color-1"><stop offset="0" stop-color="#ffffff"></stop><stop offset="0.12941" stop-color="#e5e5e1"></stop><stop offset="0.2902" stop-color="#ccc8c8"></stop><stop offset="0.43922" stop-color="#b2b4b4"></stop><stop offset="0.74902" stop-color="#464d43"></stop><stop offset="1" stop-color="#000000"></stop></radialGradient></defs><g fill="none" fill-rule="evenodd" stroke="none" stroke-width="none" stroke-linecap="butt" stroke-linejoin="miter" stroke-miterlimit="10" stroke-dasharray="" stroke-dashoffset="0" font-family="none" font-weight="none" font-size="none" text-anchor="none" style="mix-blend-mode: normal"><g transform="scale(240.25602,240.25602)"><g id="Layer_x0020_1"><rect x="0" y="0" width="1.06553" height="1.06553" fill="#015670" stroke="none" stroke-width="1"></rect><rect x="0.06505" y="0.06505" width="1.00048" height="1.00048" fill="#67aabe" stroke="none" stroke-width="1"></rect><path d="M0.13158,0.59302l-0.0064,-0.02755l0.0064,-0.02792h0.40597v-0.40597l0.02757,-0.00537l0.0279,0.00537v0.40597h0.40597l0.00405,0.02786l-0.00405,0.02761h-0.40597v0.40597l-0.02639,0.0048l-0.02909,-0.0048v-0.40597z" fill="#000000" stroke="#000000" stroke-width="0.00325"></path><circle cx="0.34704" cy="0.34412" r="0.04399" fill="#000000" stroke="#000000" stroke-width="0.00325"></circle><path d="M0.29858,0.86844l-0.0238,-0.01352l-0.01265,-0.02292l0.26671,-0.26671l-0.26671,-0.26671l0.01528,-0.02301l0.02116,-0.01344l0.26671,0.26671l0.26671,-0.26671l0.02305,0.01371l0.01339,0.02274l-0.26671,0.26671l0.26671,0.26671l-0.01252,0.02373l-0.02393,0.01272l-0.26671,-0.26671z" fill="#000000" stroke="#000000" stroke-width="0.00325"></path><circle cx="0.56758" cy="0.25691" r="0.04399" fill="#000000" stroke="#000000" stroke-width="0.00325"></circle><circle cx="0.56529" cy="0.56025" r="0.30259" fill="url(#color-1)" stroke="none" stroke-width="1"></circle><circle cx="0.77499" cy="0.3559" r="0.04399" fill="#000000" stroke="#000000" stroke-width="0.00325"></circle><circle cx="0.35411" cy="0.7749" r="0.04399" fill="#000000" stroke="#000000" stroke-width="0.00325"></circle><circle cx="0.77499" cy="0.7749" r="0.04399" fill="#000000" stroke="#000000" stroke-width="0.00325"></circle><circle cx="0.51201" cy="0.5218" r="0.04078" fill="#ffffff" stroke="none" stroke-width="1"></circle></g></g></g></svg>