<svg version="1.1" xmlns="http://www.w3.org/2000/svg" xmlns:xlink="http://www.w3.org/1999/xlink" width="25mm" height="25mm" viewBox="0,0,256,256"><defs><radialGradient cx="0.39874" cy="0.42813" r="0.42893" fx="0.39874" fy="0.42813" gradientUnits="userSpaceOnUse" id="color-1"><stop offset="0" stop-color="#05b0e4"></stop><stop offset="0.30196" stop-color="#f3f516"></stop><stop offset="0.58823" stop-color="#fcce00"></stop><stop offset="1" stop-color="#ff9e67"></stop></radialGradient></defs><g fill="none" fill-rule="none" stroke="none" stroke-width="none" stroke-linecap="butt" stroke-linejoin="miter" stroke-miterlimit="10" stroke-dasharray="" stroke-dashoffset="0" font-family="none" font-weight="none" font-size="none" text-anchor="none" style="mix-blend-mode: normal"><g transform="scale(236.39352,236.39352)"><g id="Layer_x0020_1"><rect x="0" y="0" width="1.08294" height="1.08294" fill="#015670" fill-rule="evenodd" stroke="none" stroke-width="1"></rect><rect x="0.03501" y="0.03501" width="1.01292" height="1.01292" fill="#cccccc" fill-rule="evenodd" stroke="none" stroke-width="1"></rect><path d="M0.03501,0.03501h1.01292l-0.43206,0.43042l-0.58086,0.5825z" fill="#05b0e4" fill-rule="evenodd" stroke="none" stroke-width="1"></path><path d="M1.05487,0.02886v1.02601h-1.02601z" fill="#015670" fill-rule="evenodd" stroke="none" stroke-width="1"></path><rect x="0.12854" y="0.12854" width="0.82586" height="0.82586" fill="#67aabe" fill-rule="evenodd" stroke="none" stroke-width="1"></rect><g id="_281587800"><circle cx="0.54147" cy="0.54147" r="0.32533" id="_281588328" fill="none" fill-rule="evenodd" stroke="none" stroke-width="1"></circle><circle cx="0.54357" cy="0.53517" r="0.31484" id="_281588256" fill="url(#color-1)" fill-rule="evenodd" stroke="none" stroke-width="1"></circle><path d="M0.54147,0.1964h0.00002v0.00008c0.09531,0 0.18158,0.03861 0.24397,0.10101c0.06239,0.06239 0.10099,0.14864 0.101,0.24394h0.00008v0.00004v0.00002h-0.00008c0,0.09531 -0.03861,0.18158 -0.10101,0.24397c-0.06239,0.06239 -0.14864,0.10099 -0.24393,0.101v0.00008h-0.00004h-0.00002v-0.00008c-0.09531,0 -0.18157,-0.03861 -0.24397,-0.10101c-0.06239,-0.06239 -0.10099,-0.14864 -0.101,-0.24393h-0.00008v-0.00004v-0.00002h0.00008c0,-0.09531 0.03861,-0.18157 0.10101,-0.24397c0.06239,-0.06239 0.14864,-0.10099 0.24394,-0.101v-0.00008h0.00004zM0.54149,0.2358v0.00008h-0.00002h-0.00004v-0.00008c-0.0843,0.00001 -0.16069,0.03425 -0.21603,0.08959c-0.05535,0.05534 -0.08959,0.13175 -0.0896,0.21607h0.00008v0.00002v0.00004h-0.00008c0.00001,0.0843 0.03425,0.1607 0.08959,0.21603c0.05534,0.05535 0.13175,0.08959 0.21606,0.0896v-0.00008h0.00002h0.00004v0.00008c0.0843,-0.00001 0.16069,-0.03425 0.21603,-0.08959c0.05535,-0.05535 0.08959,-0.13175 0.0896,-0.21607h-0.00008v-0.00002v-0.00004h0.00008c-0.00001,-0.0843 -0.03425,-0.16069 -0.08959,-0.21603c-0.05535,-0.05535 -0.13175,-0.08959 -0.21607,-0.0896z" id="_281588184" fill="#000000" fill-rule="nonzero" stroke="none" stroke-width="1"></path><g fill="#000000" fill-rule="evenodd"><path d="M0.64796,0.39247c-0.01731,0 -0.03352,0.00163 -0.04747,0.00573h-0.11963c-0.01395,-0.00409 -0.03018,-0.00573 -0.04748,-0.00573c-0.05209,0 -0.09434,0.01482 -0.09434,0.06692c0,0.0521 0.0245,0.09273 0.07659,0.09273c0.0521,0 0.1121,-0.06139 0.1121,-0.09273c0,-0.03133 -0.00174,-0.02497 -0.00495,-0.03266h0.0358c-0.00321,0.00769 -0.00496,0.00133 -0.00496,0.03266c0,0.03134 0.06,0.09273 0.1121,0.09273c0.05209,0 0.07659,-0.04063 0.07659,-0.09273c0,-0.0521 -0.04225,-0.06692 -0.09434,-0.06692z" id="_281588136" stroke="#000000" stroke-width="0.0033"></path><path d="M0.33867,0.43712c0,0 -0.07422,0.04356 -0.11132,0.1081c-0.03711,0.06453 -0.00645,0.05808 -0.00645,0.05808c0,0 0.05001,-0.08551 0.11294,-0.11939c0.06292,-0.03388 0.00484,-0.04679 0.00484,-0.04679z" id="_281588064" stroke="none" stroke-width="1"></path><path d="M0.74427,0.43712c0,0 0.07422,0.04356 0.11132,0.1081c0.03711,0.06453 0.00645,0.05808 0.00645,0.05808c0,0 -0.05001,-0.08551 -0.11294,-0.11939c-0.06292,-0.03388 -0.00484,-0.04679 -0.00484,-0.04679z" id="_281587992" stroke="none" stroke-width="1"></path><path d="M0.67419,0.62245c0.0068,0.00796 0.01057,0.01668 0.01057,0.02582c0,0.03742 -0.06286,0.06776 -0.14037,0.06776c-0.07751,0 -0.14037,-0.03034 -0.14037,-0.06776c0,-0.00914 0.00377,-0.01786 0.01057,-0.02582c0.02104,0.02461 0.07123,0.04195 0.1298,0.04195c0.05857,0 0.10877,-0.01734 0.1298,-0.04195z" id="_281587920" stroke="none" stroke-width="1"></path></g><path d="M0.37946,0.36126l0.01495,0.04629l0.04865,-0.00009l-0.03941,0.02852l0.01512,0.04624l-0.03931,-0.02867l-0.0393,0.02867l0.01512,-0.04624l-0.03942,-0.02852l0.04865,0.00009z" id="_281587824" fill="#05b0e4" fill-rule="evenodd" stroke="none" stroke-width="1"></path></g></g></g></g></svg>