<svg version="1.1" xmlns="http://www.w3.org/2000/svg" xmlns:xlink="http://www.w3.org/1999/xlink" width="25mm" height="25mm" viewBox="0,0,256,256"><defs><radialGradient cx="0.4508" cy="0.48402" r="0.48492" fx="0.4508" fy="0.48402" gradientUnits="userSpaceOnUse" id="color-1"><stop offset="0" stop-color="#05b0e4"></stop><stop offset="0.30196" stop-color="#f3f516"></stop><stop offset="0.58823" stop-color="#fcce00"></stop><stop offset="1" stop-color="#ff9e67"></stop></radialGradient></defs><g fill="none" fill-rule="none" stroke="none" stroke-width="1" stroke-linecap="butt" stroke-linejoin="miter" stroke-miterlimit="10" stroke-dasharray="" stroke-dashoffset="0" font-family="none" font-weight="none" font-size="none" text-anchor="none" style="mix-blend-mode: normal"><g transform="scale(209.09566,209.09566)"><g id="Layer_x0020_1"><g id="_280271384"><rect x="0" y="0" width="1.22432" height="1.22432" id="_280271864" fill="#015670" fill-rule="evenodd"></rect><g fill-rule="evenodd"><path d="M0.03913,0.03913h1.14516l-0.48847,0.48661l-0.65669,0.65854z" id="_280270640" fill="#05b0e4"></path><path d="M1.19214,0.03218v1.15996h-1.15996z" id="_280270568" fill="#015670"></path><rect x="0.14488" y="0.14488" width="0.93367" height="0.93367" id="_280270496" fill="#67aabe"></rect></g><g><circle cx="0.61216" cy="0.61216" r="0.3678" id="_281587728" fill="none" fill-rule="evenodd"></circle><circle cx="0.61453" cy="0.60504" r="0.35594" id="_281587656" fill="url(#color-1)" fill-rule="evenodd"></circle><path d="M0.61216,0.22204h0.00002v0.00009c0.10775,0 0.20528,0.04365 0.27583,0.1142c0.07053,0.07054 0.11417,0.16804 0.11418,0.27579h0.00009v0.00004v0.00002h-0.00009c0,0.10775 -0.04365,0.20528 -0.1142,0.27583c-0.07053,0.07053 -0.16804,0.11417 -0.27578,0.11418v0.00009h-0.00005h-0.00002v-0.00009c-0.10776,0 -0.20528,-0.04365 -0.27582,-0.1142c-0.07053,-0.07053 -0.11417,-0.16804 -0.11418,-0.27578h-0.00009v-0.00005v-0.00002h0.00009c0,-0.10776 0.04365,-0.20528 0.1142,-0.27582c0.07054,-0.07053 0.16805,-0.11417 0.27579,-0.11418v-0.00009h0.00004zM0.61218,0.26658v0.00009h-0.00002h-0.00004v-0.00009c-0.09531,0.00001 -0.18167,0.03872 -0.24424,0.10129c-0.06257,0.06257 -0.10129,0.14895 -0.1013,0.24427h0.00009v0.00002v0.00005h-0.00009c0.00001,0.09531 0.03872,0.18167 0.10129,0.24424c0.06257,0.06257 0.14895,0.10129 0.24427,0.1013v-0.00009h0.00002h0.00005v0.00009c0.09531,-0.00001 0.18167,-0.03872 0.24424,-0.10128c0.06257,-0.06257 0.10129,-0.14895 0.1013,-0.24428h-0.00009v-0.00002v-0.00004h0.00009c-0.00001,-0.09531 -0.03872,-0.18167 -0.10128,-0.24424c-0.06257,-0.06257 -0.14895,-0.10129 -0.24428,-0.1013z" id="_281587584" fill="#000000" fill-rule="nonzero"></path><path d="M0.7622,0.70371c0.00768,0.009 0.01194,0.01885 0.01194,0.02919c0,0.0423 -0.07106,0.07661 -0.15869,0.07661c-0.08763,0 -0.15869,-0.03431 -0.15869,-0.07661c0,-0.01034 0.00426,-0.0202 0.01194,-0.02919c0.02378,0.02783 0.08053,0.04743 0.14675,0.04743c0.06622,0 0.12297,-0.0196 0.14675,-0.04743z" id="_281587512" fill="#000000" fill-rule="evenodd"></path><circle cx="0.49018" cy="0.52555" r="0.06593" id="_281587440" fill="#000000" fill-rule="evenodd"></circle><circle cx="0.7225" cy="0.52555" r="0.06593" id="_281587368" fill="#000000" fill-rule="evenodd"></circle></g></g></g></g></g></svg>