<svg version="1.1" xmlns="http://www.w3.org/2000/svg" xmlns:xlink="http://www.w3.org/1999/xlink" width="25mm" height="25mm" viewBox="0,0,256,256"><defs><linearGradient x1="0.31367" y1="0.36666" x2="0.59392" y2="0.41671" gradientUnits="userSpaceOnUse" id="color-1"><stop offset="0" stop-color="#e70030"></stop><stop offset="0.38824" stop-color="#ff4848"></stop><stop offset="0.61961" stop-color="#ff2f2f"></stop><stop offset="0.78824" stop-color="#ff1c1c"></stop><stop offset="0.96863" stop-color="#c01515"></stop><stop offset="1" stop-color="#a10d0d"></stop></linearGradient></defs><g fill="none" fill-rule="evenodd" stroke="none" stroke-width="none" stroke-linecap="butt" stroke-linejoin="miter" stroke-miterlimit="10" stroke-dasharray="" stroke-dashoffset="0" font-family="none" font-weight="none" font-size="none" text-anchor="none" style="mix-blend-mode: normal"><g transform="scale(229.11763,229.11763)"><g id="Layer_x0020_1"><rect x="0" y="0" width="1.11733" height="1.11733" fill="#cccccc" stroke="none" stroke-width="1"></rect><path d="M0,0h1.11733l-0.39714,0.72019l-0.72019,0.39714z" fill="#05b0e4" stroke="none" stroke-width="1"></path><path d="M1.11733,0v1.11733h-1.11733z" fill="#015670" stroke="none" stroke-width="1"></path><rect x="0.13563" y="0.13563" width="0.84606" height="0.84606" fill="#ffa0a0" stroke="none" stroke-width="1"></rect><rect x="0.58237" y="0.51339" width="0.06523" height="0.23504" fill="#000000" stroke="#000000" stroke-width="0.00341"></rect><rect x="0.43013" y="0.7019" width="0.29372" height="0.11915" rx="0.03746" ry="0.03746" fill="#000000" stroke="none" stroke-width="1"></rect><rect x="0.30148" y="0.77866" width="0.5542" height="0.14255" rx="0.03971" ry="0.03971" fill="#000000" stroke="none" stroke-width="1"></rect><path d="M0.6532,0.20233v0.37872c-0.06434,-0.14952 -0.32488,-0.00914 -0.3988,-0.29911c0,0 0.08481,0.02505 0.18016,-0.02055c0.09535,-0.04559 0.16591,-0.03266 0.21864,-0.05906z" fill="url(#color-1)" stroke="none" stroke-width="1"></path></g></g></g></svg>