<svg version="1.1" xmlns="http://www.w3.org/2000/svg" xmlns:xlink="http://www.w3.org/1999/xlink" width="25mm" height="25mm" viewBox="0,0,256,256"><defs><radialGradient cx="0.5652" cy="0.57311" r="0.17309" fx="0.5652" fy="0.57311" gradientUnits="userSpaceOnUse" id="color-1"><stop offset="0" stop-color="#ffffff"></stop><stop offset="0.12941" stop-color="#e5e5e1"></stop><stop offset="0.2902" stop-color="#ccc8c8"></stop><stop offset="0.43922" stop-color="#b2b4b4"></stop><stop offset="0.74902" stop-color="#464d43"></stop><stop offset="1" stop-color="#000000"></stop></radialGradient></defs><g fill="none" fill-rule="evenodd" stroke="none" stroke-width="none" stroke-linecap="butt" stroke-linejoin="miter" stroke-miterlimit="10" stroke-dasharray="" stroke-dashoffset="0" font-family="none" font-weight="none" font-size="none" text-anchor="none" style="mix-blend-mode: normal"><g transform="scale(214.56889,214.56889)"><g id="Layer_x0020_1"><rect x="0" y="0" width="1.19309" height="1.19309" fill="#015670" stroke="none" stroke-width="1"></rect><rect x="0.07283" y="0.07283" width="1.12025" height="1.12025" fill="#ff0000" stroke="none" stroke-width="1"></rect><path d="M0.14734,0.66402l-0.00716,-0.03084l0.00716,-0.03127h0.45457v-0.45457l0.03087,-0.00601l0.03124,0.00601v0.45457h0.45457l0.00453,0.0312l-0.00453,0.03092h-0.45457v0.45457l-0.02955,0.00537l-0.03257,-0.00537v-0.45457z" fill="#000000" stroke="#000000" stroke-width="0.00364"></path><circle cx="0.38858" cy="0.38531" r="0.04925" fill="#000000" stroke="#000000" stroke-width="0.00364"></circle><path d="M0.33432,0.9724l-0.02664,-0.01514l-0.01416,-0.02567l0.29864,-0.29863l-0.29864,-0.29863l0.01711,-0.02576l0.0237,-0.01505l0.29864,0.29863l0.29864,-0.29864l0.02581,0.01535l0.015,0.02546l-0.29864,0.29864l0.29864,0.29864l-0.01402,0.02657l-0.02679,0.01424l-0.29864,-0.29864z" fill="#000000" stroke="#000000" stroke-width="0.00364"></path><circle cx="0.63552" cy="0.28767" r="0.04925" fill="#000000" stroke="#000000" stroke-width="0.00364"></circle><circle cx="0.63296" cy="0.62731" r="0.33881" fill="url(#color-1)" stroke="none" stroke-width="1"></circle><circle cx="0.86776" cy="0.39851" r="0.04925" fill="#000000" stroke="#000000" stroke-width="0.00364"></circle><circle cx="0.3965" cy="0.86767" r="0.04925" fill="#000000" stroke="#000000" stroke-width="0.00364"></circle><circle cx="0.86776" cy="0.86767" r="0.04925" fill="#000000" stroke="#000000" stroke-width="0.00364"></circle><circle cx="0.57331" cy="0.58427" r="0.04567" fill="#ffffff" stroke="none" stroke-width="1"></circle></g></g></g></svg>