<svg version="1.1" xmlns="http://www.w3.org/2000/svg" xmlns:xlink="http://www.w3.org/1999/xlink" width="25mm" height="25mm" viewBox="0,0,256,256"><defs><radialGradient cx="0.63052" cy="0.67699" r="0.67826" fx="0.63052" fy="0.67699" gradientUnits="userSpaceOnUse" id="color-1"><stop offset="0" stop-color="#05b0e4"></stop><stop offset="0.30196" stop-color="#f3f516"></stop><stop offset="0.58823" stop-color="#fcce00"></stop><stop offset="1" stop-color="#ff9e67"></stop></radialGradient></defs><g fill="none" fill-rule="none" stroke="none" stroke-width="1" stroke-linecap="butt" stroke-linejoin="miter" stroke-miterlimit="10" stroke-dasharray="" stroke-dashoffset="0" font-family="none" font-weight="none" font-size="none" text-anchor="none" style="mix-blend-mode: normal"><g transform="scale(149.49429,149.49429)"><g id="Layer_x0020_1"><g id="_280013496"><rect x="0" y="0" width="1.71244" height="1.71244" id="_280272344" fill="#015670" fill-rule="evenodd"></rect><g fill-rule="evenodd"><path d="M0.05474,0.05474h1.60172l-0.68322,0.68062l-0.9185,0.9211z" id="_280270160" fill="#05b0e4"></path><path d="M1.66743,0.04501v1.62242h-1.62242z" id="_280270088" fill="#015670"></path><rect x="0.20264" y="0.20264" width="1.30591" height="1.30591" id="_280270016" fill="#67aabe"></rect></g><g><circle cx="0.85622" cy="0.85622" r="0.51444" id="_281586192" fill="none" fill-rule="evenodd"></circle><circle cx="0.85953" cy="0.84626" r="0.49784" id="_281586120" fill="url(#color-1)" fill-rule="evenodd"></circle><path d="M0.85621,0.31057h0.00003v0.00012c0.15071,0.00001 0.28712,0.06105 0.38579,0.15972c0.09865,0.09866 0.15969,0.23504 0.1597,0.38574h0.00012v0.00006v0.00003h-0.00012c-0.00001,0.15071 -0.06105,0.28712 -0.15973,0.38579c-0.09865,0.09865 -0.23504,0.15969 -0.38573,0.1597v0.00012h-0.00007h-0.00003v-0.00012c-0.15071,-0.00001 -0.28712,-0.06105 -0.38578,-0.15973c-0.09865,-0.09865 -0.15969,-0.23504 -0.15971,-0.38573h-0.00012v-0.00007v-0.00003h0.00012c0.00001,-0.15071 0.06105,-0.28712 0.15972,-0.38578c0.09866,-0.09865 0.23504,-0.15969 0.38574,-0.15971v-0.00012zM0.85625,0.37286v0.00012h-0.00003h-0.00006v-0.00012c-0.1333,0.00001 -0.2541,0.05416 -0.34161,0.14167c-0.08752,0.08751 -0.14167,0.20833 -0.14168,0.34166h0.00012v0.00003v0.00007h-0.00012c0.00001,0.13331 0.05416,0.25411 0.14167,0.34161c0.08751,0.08752 0.20833,0.14167 0.34166,0.14168v-0.00012h0.00003h0.00007v0.00012c0.13331,-0.00001 0.2541,-0.05415 0.34161,-0.14166c0.08752,-0.08752 0.14167,-0.20833 0.14168,-0.34167h-0.00012v-0.00003v-0.00006h0.00012c-0.00001,-0.1333 -0.05415,-0.2541 -0.14166,-0.34161c-0.08752,-0.08752 -0.20833,-0.14167 -0.34167,-0.14168z" id="_281586048" fill="#000000" fill-rule="nonzero"></path><path d="M1.10922,1.11717c0.01249,-0.0213 0.01941,-0.04456 0.01941,-0.06892c0,-0.10175 -0.11999,-0.18425 -0.26794,-0.18425c-0.14795,0 -0.26794,0.0825 -0.26794,0.18425c0,0.02329 0.00632,0.04558 0.01778,0.06611c0.02052,-0.09505 0.12423,-0.16739 0.24905,-0.16739c0.12605,0 0.23056,0.07376 0.24965,0.17019z" id="_281585976" fill="#000000" fill-rule="evenodd"></path><path d="M0.7399,0.54131l0.03003,0.03003c0.00147,0.00147 0.00086,0.00447 -0.00135,0.00668l-0.07137,0.07137l0.07102,0.07102c0.0024,0.0024 0.00306,0.00568 0.00147,0.00727l-0.02955,0.02955c-0.0016,0.0016 -0.00487,0.00095 -0.00727,-0.00147l-0.07102,-0.07102l-0.07138,0.07138c-0.00221,0.00221 -0.00521,0.00282 -0.00667,0.00134l-0.03004,-0.03003c-0.00147,-0.00147 -0.00086,-0.00447 0.00135,-0.00667l0.07137,-0.07138l-0.07101,-0.07101c-0.0024,-0.00241 -0.00306,-0.00569 -0.00147,-0.00728l0.02955,-0.02955c0.0016,-0.0016 0.00487,-0.00094 0.00727,0.00147l0.07102,0.07102l0.07137,-0.07137c0.00221,-0.00221 0.00521,-0.00282 0.00668,-0.00135z" id="_281585904" fill="#000000" fill-rule="evenodd"></path><path d="M1.12502,0.54131l0.03003,0.03003c0.00147,0.00147 0.00086,0.00447 -0.00135,0.00668l-0.07137,0.07137l0.07102,0.07102c0.0024,0.0024 0.00306,0.00568 0.00147,0.00727l-0.02955,0.02955c-0.0016,0.0016 -0.00487,0.00095 -0.00727,-0.00147l-0.07102,-0.07102l-0.07138,0.07138c-0.00221,0.00221 -0.00521,0.00282 -0.00667,0.00134l-0.03004,-0.03003c-0.00147,-0.00147 -0.00086,-0.00447 0.00135,-0.00667l0.07137,-0.07138l-0.07101,-0.07101c-0.0024,-0.00241 -0.00306,-0.00569 -0.00147,-0.00728l0.02955,-0.02955c0.0016,-0.0016 0.00487,-0.00094 0.00727,0.00147l0.07102,0.07102l0.07137,-0.07137c0.00221,-0.00221 0.00521,-0.00282 0.00668,-0.00135z" id="_281585832" fill="#000000" fill-rule="evenodd"></path></g></g></g></g></g></svg>