<svg version="1.1" xmlns="http://www.w3.org/2000/svg" xmlns:xlink="http://www.w3.org/1999/xlink" width="24px" height="24px" viewBox="0,0,256,256"><g fill="none" fill-rule="nonzero" stroke="none" stroke-width="1" stroke-linecap="butt" stroke-linejoin="miter" stroke-miterlimit="10" stroke-dasharray="" stroke-dashoffset="0" font-family="none" font-weight="none" font-size="none" text-anchor="none" style="mix-blend-mode: normal"><g transform="scale(10.66667,10.66667)"><g id="Layer_2"><g id="Layer_2-2"><g id="Browser"><rect x="0" y="0" width="24" height="24" fill="none"></rect><path d="M1,12c0,-8 3,-11 11,-11c8,0 11,3 11,11c0,8 -3,11 -11,11c-8,0 -11,-3 -11,-11" fill="#ffffff"></path><path d="M14.94,15.33h-0.57c-1.02898,0.76575 -2.35478,1.01131 -3.58976,0.66489c-1.23498,-0.34642 -2.23964,-1.24569 -2.72024,-2.43489c-0.367,-0.20094 -0.72103,-0.42471 -1.06,-0.67c0.36259,1.8507 1.73565,3.33994 3.55088,3.85133c1.81523,0.51139 3.76376,-0.04208 5.03912,-1.43133c-0.2,0.02 -0.42,0.02 -0.65,0.02z" fill="#4641c9"></path><path d="M16.85,11.57c-0.24001,-2.04138 -1.70486,-3.7279 -3.69254,-4.25132c-1.98768,-0.52342 -4.09318,0.22291 -5.30746,1.88132v0v0c-1.31,0.26 -1.71,0.8 -1.85,1.22c-0.14,0.42 0,1.14 1,2c1.29003,0.93929 2.7505,1.61858 4.3,2c1.1529,0.32403 2.34262,0.49879 3.54,0.52c0.27978,0.01567 0.56022,0.01567 0.84,0c1.59,-0.16 2.07,-0.78 2.19,-1.26c0.12,-0.48 0.13,-1.23 -1.02,-2.11zM6.85,10.63c0.0757,-0.18553 0.22938,-0.32823 0.42,-0.39c-0.11694,0.29653 -0.20078,0.60507 -0.25,0.92c-0.13689,-0.14046 -0.20303,-0.33522 -0.18,-0.53zM11.61,13.63c-1.368,-0.33322 -2.66519,-0.909 -3.83,-1.7c0.0136,-0.70478 0.21001,-1.39394 0.57,-2v-0.06c0.95034,-1.55328 2.80583,-2.30085 4.56755,-1.84027c1.76173,0.46058 3.01391,2.02062 3.08245,3.84027c0.00233,0.0433 0.00233,0.0867 0,0.13c0.00522,0.72811 -0.18841,1.44383 -0.56,2.07c-1.29686,0.04874 -2.59318,-0.10992 -3.84,-0.47zM17.17,13.45c0,0.16 -0.24,0.34 -0.67,0.48c0.15998,-0.39493 0.27081,-0.80803 0.33,-1.23c0.29,0.3 0.37,0.56 0.33,0.72z" fill="#5e59e2"></path></g></g></g></g></g></svg>