<?xml version="1.0" encoding="UTF-8"?>
<!DOCTYPE svg  PUBLIC '-//W3C//DTD SVG 1.1//EN'  'http://www.w3.org/Graphics/SVG/1.1/DTD/svg11.dtd'>
<svg version="1.1" xmlns="http://www.w3.org/2000/svg">
<defs>
<font id="MINE-SWEEPER" horiz-adv-x="2252">
<font-face font-family="MINE-SWEEPER" font-weight="400" ascent="2048" bbox="0 -409 2867 2457" cap-height="2048" descent="0" panose-1="0 0 4 0 0 0 0 0 0 0" underline-position="153" underline-thickness="102" unicode-range="U+0020-007D" units-per-em="2048" x-height="2048"/>
<missing-glyph/>
<glyph glyph-name="space" horiz-adv-x="1024" unicode=" "/>
<glyph d="M0 0v409h409v-409h-409zM0 819v1229h409v-1229h-409z" glyph-name="exclam" horiz-adv-x="614" unicode="!"/>
<glyph d="M204 1228l-204 410v410h409v-410zM819 1228l-205 410v410h410v-410z" glyph-name="quotedbl" horiz-adv-x="1228" unicode='"'/>
<glyph d="M1228 819v409h-409v-409h409zM204 0v409h-204v410h204v409h-204v410h204v410h615v-410h409v410h615v-410h205v-410h-205v-409h205v-410h-205v-409h-615v409h-409v-409h-615z" glyph-name="numbersign" unicode="#"/>
<glyph d="M1433 409v410h-205v-410h205zM819 1228v410h-205v-410h205zM0 0v409h819v410h-615l-204 205v819l204 205h1844v-410h-820v-410h615l205 -204v-820l-205 -204h-1843z" glyph-name="dollar" unicode="$"/>
<glyph d="M2457 409v205h-205v-205h205zM2048 0l-205 204v615l205 205h614l205 -205v-615l-205 -204h-614zM614 1433v205h-205v-205h205zM204 1024l-204 204v615l204 205h615l205 -205v-615l-205 -204h-615zM614 0l1024 2048h614l-1024 -2048h-614z" glyph-name="percent" horiz-adv-x="3072" unicode="%"/>
<glyph d="M1228 409v410h-614v-410h614zM1024 1228v410h-410v-410h410zM204 0l-204 204v615l204 205l-204 204v615l204 205h1024l205 -205v-615l410 -409v-410h205v-409h-1844z" glyph-name="ampersand" unicode="&amp;"/>
<glyph d="M204 1228l-204 410v410h409v-410z" glyph-name="quotesingle" horiz-adv-x="614" unicode="'"/>
<glyph d="M204 0l-204 204v1639l204 205h820v-410h-410v-1229h410v-409h-820z" glyph-name="parenleft" horiz-adv-x="1228" unicode="("/>
<glyph d="M0 0v409h409v1229h-409v410h819l205 -205v-1639l-205 -204h-819z" glyph-name="parenright" horiz-adv-x="1228" unicode=")"/>
<glyph d="M409 204v205h205v-205h-205zM2048 204v205h204v-205h-204zM1228 1228v410h-409v-410h409zM409 1843v205h205v-205h-205zM2048 1843v205h204v-205h-204zM1228 -204v408h-409v205h-205v205h-205v410h-409v204h409v410h205v205h205v205h409v409h205v-409h410v-205h205v-205 h204v-410h410v-204h-410v-410h-204v-205h-205v-205h-410v-408h-205z" glyph-name="asterisk" horiz-adv-x="2867" unicode="*"/>
<glyph d="M614 0v614h-614v410h614v614h410v-614h614v-410h-614v-614h-410z" glyph-name="plus" horiz-adv-x="1843" unicode="+"/>
<glyph d="M0 -409v205h204v204h-204v409h409v-613l-205 -205h-204z" glyph-name="comma" horiz-adv-x="614" unicode=","/>
<glyph d="M0 614v410h1638v-410h-1638z" glyph-name="hyphen" horiz-adv-x="1843" unicode="-"/>
<glyph d="M0 0v409h409v-409h-409z" glyph-name="period" horiz-adv-x="614" unicode="."/>
<glyph d="M0 0l1024 2048h614l-1024 -2048h-614z" glyph-name="slash" horiz-adv-x="1843" unicode="/"/>
<glyph d="M1433 409v1229h-819v-1229h819zM204 0l-204 204v1639l204 205h1639l205 -205v-1639l-205 -204h-1639z" glyph-name="zero" unicode="0"/>
<glyph d="M0 0v409h409v819h-409v205l614 615h410v-1639h409v-409h-1433z" glyph-name="one" horiz-adv-x="1638" unicode="1"/>
<glyph d="M0 0v614l1228 614l205 205v205h-819v-205h-614v410l204 205h1639l205 -205v-615l-205 -204l-1024 -512v-103h1229v-409h-2048z" glyph-name="two" unicode="2"/>
<glyph d="M0 0v409h1433v410h-819v409h819v410h-1433v410h1843l205 -205v-615l-205 -204l205 -205v-615l-205 -204h-1843z" glyph-name="three" unicode="3"/>
<glyph d="M1228 0v819h-1228v409l409 820h615l-410 -820h614v820h615v-820h205v-409h-205v-819h-615z" glyph-name="four" unicode="4"/>
<glyph d="M0 0v409h1433v410h-1433v1229h2048v-410h-1434v-410h1229l205 -204v-820l-205 -204h-1843z" glyph-name="five" unicode="5"/>
<glyph d="M1433 409v410h-819v-410h819zM204 0l-204 204v1639l204 205h1639v-410h-1229v-410h1229l205 -204v-820l-205 -204h-1639z" glyph-name="six" unicode="6"/>
<glyph d="M819 0l614 1228v410h-1433v410h2048v-820l-615 -1228h-614z" glyph-name="seven" unicode="7"/>
<glyph d="M1433 409v410h-819v-410h819zM1433 1228v410h-819v-410h819zM204 0l-204 204v615l204 205l-204 204v615l204 205h1639l205 -205v-615l-205 -204l205 -205v-615l-205 -204h-1639z" glyph-name="eight" unicode="8"/>
<glyph d="M1433 1228v410h-819v-410h819zM204 0v409h1229v410h-1229l-204 205v819l204 205h1639l205 -205v-1639l-205 -204h-1639z" glyph-name="nine" unicode="9"/>
<glyph d="M0 0v409h409v-409h-409zM0 1024v409h409v-409h-409z" glyph-name="colon" horiz-adv-x="614" unicode=":"/>
<glyph d="M0 -409v205h204v204h-204v409h409v-613l-205 -205h-204zM0 1024v409h409v-409h-409z" glyph-name="semicolon" horiz-adv-x="614" unicode=";"/>
<glyph d="M614 409l-614 615l614 614h410l-615 -614l615 -615h-410z" glyph-name="less" horiz-adv-x="1228" unicode="&lt;"/>
<glyph d="M0 409v410h1228v-410h-1228zM0 1228v410h1228v-410h-1228z" glyph-name="equal" horiz-adv-x="1433" unicode="="/>
<glyph d="M0 409l614 615l-614 614h409l615 -614l-615 -615h-409z" glyph-name="greater" horiz-adv-x="1228" unicode="&gt;"/>
<glyph d="M614 0v409h614v-409h-614zM819 819l205 409v410h-1024v205l204 205h1229l205 -205v-615l-205 -409h-614z" glyph-name="question" horiz-adv-x="1843" unicode="?"/>
<glyph d="M1433 1024v614h-205v-614h205zM204 0l-204 204v1639l204 205h1639l205 -205v-1024l-205 -205h-819l-205 205v819h-205v-1229h1434v-205l-205 -204h-1639z" glyph-name="at" unicode="@"/>
<glyph d="M1433 1228v410h-819v-410h819zM0 0v1843l204 205h1639l205 -205v-1843h-615v819h-819v-819h-614z" glyph-name="A" unicode="A"/>
<glyph d="M1433 409v410h-819v-410h819zM1433 1228v410h-819v-410h819zM0 0v2048h1843l205 -205v-615l-205 -204l205 -205v-615l-205 -204h-1843z" glyph-name="B" unicode="B"/>
<glyph d="M204 0l-204 204v1639l204 205h1844v-410h-1434v-1229h1434v-409h-1844z" glyph-name="C" unicode="C"/>
<glyph d="M1433 409v1229h-409v-1229h409zM0 0v409h409v1229h-409v410h1843l205 -205v-1639l-205 -204h-1843z" glyph-name="D" unicode="D"/>
<glyph d="M204 0l-204 204v1639l204 205h1844v-410h-1434v-410h1434v-409h-1434v-410h1434v-409h-1844z" glyph-name="E" unicode="E"/>
<glyph d="M0 0v1843l204 205h1844v-410h-1434v-410h1434v-409h-1434v-819h-614z" glyph-name="F" unicode="F"/>
<glyph d="M204 0l-204 204v1639l204 205h1639v-410h-1229v-1229h819v410h-409v409h819l205 -204v-820l-205 -204h-1639z" glyph-name="G" unicode="G"/>
<glyph d="M0 0v2048h614v-820h819v820h615v-2048h-615v819h-819v-819h-614z" glyph-name="H" unicode="H"/>
<glyph d="M0 0v409h409v1229h-409v410h1433v-410h-409v-1229h409v-409h-1433z" glyph-name="I" horiz-adv-x="1638" unicode="I"/>
<glyph d="M204 0l-204 204v615h614v-410h819v1639h615v-1844l-205 -204h-1639z" glyph-name="J" unicode="J"/>
<glyph d="M0 0v2048h614v-820h819v820h615v-615l-410 -409l410 -410v-614h-615v819h-819v-819h-614z" glyph-name="K" unicode="K"/>
<glyph d="M0 0v2048h614v-1639h1434v-409h-2048z" glyph-name="L" unicode="L"/>
<glyph d="M0 0v2048h614l410 -410l409 410h615v-2048h-615v1433l-409 -409l-410 409v-1433h-614z" glyph-name="M" unicode="M"/>
<glyph d="M0 0v2048h614l819 -1639v1639h615v-2048h-820l-614 1228v-1228h-614z" glyph-name="N" unicode="N"/>
<glyph d="M1433 409v1229h-819v-1229h819zM204 0l-204 204v1639l204 205h1639l205 -205v-1639l-205 -204h-1639z" glyph-name="O" unicode="O"/>
<glyph d="M1433 1228v410h-819v-410h819zM0 0v2048h1843l205 -205v-819l-205 -205h-1229v-819h-614z" glyph-name="P" unicode="P"/>
<glyph d="M1331 409l-307 615h409v614h-819v-1229h717zM204 0l-204 204v1639l204 205h1639l205 -205v-1639l-205 -204h-1639z" glyph-name="Q" unicode="Q"/>
<glyph d="M1433 1228v410h-819v-410h819zM0 0v2048h1843l205 -205v-819l-205 -205h-410l615 -615v-204h-410l-819 819h-205v-819h-614z" glyph-name="R" unicode="R"/>
<glyph d="M0 0v409h1433v410h-1229l-204 205v819l204 205h1844v-410h-1434v-410h1229l205 -204v-820l-205 -204h-1843z" glyph-name="S" unicode="S"/>
<glyph d="M614 0v1638h-614v410h1843v-410h-615v-1638h-614z" glyph-name="T" horiz-adv-x="2048" unicode="T"/>
<glyph d="M204 0l-204 204v1844h614v-1639h819v1639h615v-1844l-205 -204h-1639z" glyph-name="U" unicode="U"/>
<glyph d="M0 0v2048h614v-1434l819 819v615h615v-820l-1229 -1228h-819z" glyph-name="V" unicode="V"/>
<glyph d="M409 0l-409 409v1639h614v-1434l410 410l409 -410v1434h615v-1639l-410 -409h-205l-409 409l-410 -409h-205z" glyph-name="W" unicode="W"/>
<glyph d="M0 0v614l409 410l-409 409v615h614v-820h819v820h615v-615l-410 -409l410 -410v-614h-615v819h-819v-819h-614z" glyph-name="X" unicode="X"/>
<glyph d="M0 0v409h1433v410h-1229l-204 205v1024h614v-820h819v820h615v-1844l-205 -204h-1843z" glyph-name="Y" unicode="Y"/>
<glyph d="M0 0v716l1433 717v205h-1433v410h2048v-820l-1434 -716v-103h1434v-409h-2048z" glyph-name="Z" unicode="Z"/>
<glyph d="M0 0v2048h1024v-410h-410v-1229h410v-409h-1024z" glyph-name="bracketleft" horiz-adv-x="1228" unicode="["/>
<glyph d="M1024 0l-1024 2048h614l1024 -2048h-614z" glyph-name="backslash" horiz-adv-x="1843" unicode="\"/>
<glyph d="M0 0v409h409v1229h-409v410h1024v-2048h-1024z" glyph-name="bracketright" horiz-adv-x="1228" unicode="]"/>
<glyph d="M0 1433v410l614 614l614 -614v-410l-614 615z" glyph-name="asciicircum" horiz-adv-x="1433" unicode="^"/>
<glyph d="M0 0v409h1228v-409h-1228z" glyph-name="underscore" horiz-adv-x="1433" unicode="_"/>
<glyph d="M0 0v409h409v205h410v410h-205v204h-410v205h-204v205h204v205h410v205h410v-1434h204v-205h410v-409h-1638z" glyph-name="grave" horiz-adv-x="1843" unicode="`"/>
<glyph d="M1433 1228v410h-819v-410h819zM0 0v1843l204 205h1639l205 -205v-1843h-615v819h-819v-819h-614z" glyph-name="a" unicode="a"/>
<glyph d="M1433 409v410h-819v-410h819zM1433 1228v410h-819v-410h819zM0 0v2048h1843l205 -205v-615l-205 -204l205 -205v-615l-205 -204h-1843z" glyph-name="b" unicode="b"/>
<glyph d="M204 0l-204 204v1639l204 205h1844v-410h-1434v-1229h1434v-409h-1844z" glyph-name="c" unicode="c"/>
<glyph d="M1433 409v1229h-409v-1229h409zM0 0v409h409v1229h-409v410h1843l205 -205v-1639l-205 -204h-1843z" glyph-name="d" unicode="d"/>
<glyph d="M204 0l-204 204v1639l204 205h1844v-410h-1434v-410h1434v-409h-1434v-410h1434v-409h-1844z" glyph-name="e" unicode="e"/>
<glyph d="M0 0v1843l204 205h1844v-410h-1434v-410h1434v-409h-1434v-819h-614z" glyph-name="f" unicode="f"/>
<glyph d="M204 0l-204 204v1639l204 205h1639v-410h-1229v-1229h819v410h-409v409h819l205 -204v-820l-205 -204h-1639z" glyph-name="g" unicode="g"/>
<glyph d="M0 0v2048h614v-820h819v820h615v-2048h-615v819h-819v-819h-614z" glyph-name="h" unicode="h"/>
<glyph d="M0 0v409h409v1229h-409v410h1433v-410h-409v-1229h409v-409h-1433z" glyph-name="i" horiz-adv-x="1638" unicode="i"/>
<glyph d="M204 0l-204 204v615h614v-410h819v1639h615v-1844l-205 -204h-1639z" glyph-name="j" unicode="j"/>
<glyph d="M0 0v2048h614v-820h819v820h615v-615l-410 -409l410 -410v-614h-615v819h-819v-819h-614z" glyph-name="k" unicode="k"/>
<glyph d="M0 0v2048h614v-1639h1434v-409h-2048z" glyph-name="l" unicode="l"/>
<glyph d="M0 0v2048h614l410 -410l409 410h615v-2048h-615v1433l-409 -409l-410 409v-1433h-614z" glyph-name="m" unicode="m"/>
<glyph d="M0 0v2048h614l819 -1639v1639h615v-2048h-820l-614 1228v-1228h-614z" glyph-name="n" unicode="n"/>
<glyph d="M1433 409v1229h-819v-1229h819zM204 0l-204 204v1639l204 205h1639l205 -205v-1639l-205 -204h-1639z" glyph-name="o" unicode="o"/>
<glyph d="M1433 1228v410h-819v-410h819zM0 0v2048h1843l205 -205v-819l-205 -205h-1229v-819h-614z" glyph-name="p" unicode="p"/>
<glyph d="M1331 409l-307 615h409v614h-819v-1229h717zM204 0l-204 204v1639l204 205h1639l205 -205v-1639l-205 -204h-1639z" glyph-name="q" unicode="q"/>
<glyph d="M1433 1228v410h-819v-410h819zM0 0v2048h1843l205 -205v-819l-205 -205h-410l615 -615v-204h-410l-819 819h-205v-819h-614z" glyph-name="r" unicode="r"/>
<glyph d="M0 0v409h1433v410h-1229l-204 205v819l204 205h1844v-410h-1434v-410h1229l205 -204v-820l-205 -204h-1843z" glyph-name="s" unicode="s"/>
<glyph d="M614 0v1638h-614v410h1843v-410h-615v-1638h-614z" glyph-name="t" horiz-adv-x="2048" unicode="t"/>
<glyph d="M204 0l-204 204v1844h614v-1639h819v1639h615v-1844l-205 -204h-1639z" glyph-name="u" unicode="u"/>
<glyph d="M0 0v2048h614v-1434l819 819v615h615v-820l-1229 -1228h-819z" glyph-name="v" unicode="v"/>
<glyph d="M409 0l-409 409v1639h614v-1434l410 410l409 -410v1434h615v-1639l-410 -409h-205l-409 409l-410 -409h-205z" glyph-name="w" unicode="w"/>
<glyph d="M0 0v614l409 410l-409 409v615h614v-820h819v820h615v-615l-410 -409l410 -410v-614h-615v819h-819v-819h-614z" glyph-name="x" unicode="x"/>
<glyph d="M0 0v409h1433v410h-1229l-204 205v1024h614v-820h819v820h615v-1844l-205 -204h-1843z" glyph-name="y" unicode="y"/>
<glyph d="M0 0v716l1433 717v205h-1433v410h2048v-820l-1434 -716v-103h1434v-409h-2048z" glyph-name="z" unicode="z"/>
<glyph d="M409 0l-205 204v615l-204 205l204 204v615l205 205h615v-410h-410v-410l-205 -204l205 -205v-410h410v-409h-615z" glyph-name="braceleft" horiz-adv-x="1228" unicode="{"/>
<glyph d="M0 0v2048h614v-2048h-614z" glyph-name="bar" horiz-adv-x="819" unicode="|"/>
<glyph d="M0 0v409h409v410l205 205l-205 204v410h-409v410h614l205 -205v-615l205 -204l-205 -205v-615l-205 -204h-614z" glyph-name="braceright" horiz-adv-x="1228" unicode="}"/>
</font>
</defs>
</svg>
