<svg version="1.1" xmlns="http://www.w3.org/2000/svg" xmlns:xlink="http://www.w3.org/1999/xlink" width="16" height="16" viewBox="0,0,256,256"><g fill="#5e58e3" fill-rule="nonzero" stroke="none" stroke-width="1" stroke-linecap="butt" stroke-linejoin="miter" stroke-miterlimit="10" stroke-dasharray="" stroke-dashoffset="0" font-family="none" font-weight="none" font-size="none" text-anchor="none" style="mix-blend-mode: normal"><g transform="translate(0,0.8) scale(16,16)"><path d="M15.7,14.3l-4.2,-4.2c-0.2,-0.2 -0.5,-0.3 -0.8,-0.3c0.8,-1 1.3,-2.4 1.3,-3.8c0,-3.3 -2.7,-6 -6,-6c-3.3,0 -6,2.7 -6,6c0,3.3 2.7,6 6,6c1.4,0 2.8,-0.5 3.8,-1.4c0,0.3 0,0.6 0.3,0.8l4.2,4.2c0.2,0.2 0.5,0.3 0.7,0.3c0.2,0 0.5,-0.1 0.7,-0.3c0.4,-0.3 0.4,-0.9 0,-1.3zM6,10.5c-2.5,0 -4.5,-2 -4.5,-4.5c0,-2.5 2,-4.5 4.5,-4.5c2.5,0 4.5,2 4.5,4.5c0,2.5 -2,4.5 -4.5,4.5z"></path></g></g></svg>