<?xml version="1.0" standalone="no"?>
<!DOCTYPE svg PUBLIC "-//W3C//DTD SVG 20010904//EN"
 "http://www.w3.org/TR/2001/REC-SVG-20010904/DTD/svg10.dtd">
<svg version="1.0" xmlns="http://www.w3.org/2000/svg"
 width="107.000000pt" height="77.000000pt" viewBox="0 0 1280.000000 950.000000"
 preserveAspectRatio="xMidYMid meet">
<metadata>
Created by potrace 1.16, written by Peter Selinger 2001-2019
</metadata>
<g transform="translate(0.000000,1280.000000) scale(0.100000,-0.100000)"
fill="#FFFFFF" stroke="none">
<path d="M5360 9049 c-123 -12 -550 -28 -950 -34 -791 -12 -1236 -44 -1870
-135 -399 -57 -494 -67 -758 -79 -231 -10 -229 -9 -234 -111 l-3 -68 78 -38
c42 -21 77 -41 77 -45 0 -4 -46 -36 -102 -70 -309 -192 -576 -441 -801 -750
-80 -111 -91 -119 -168 -119 -37 0 -222 -59 -231 -74 -70 -106 -128 -202 -128
-213 0 -11 9 -7 30 10 101 85 335 97 534 27 129 -46 252 -108 281 -141 19 -23
25 -42 25 -77 0 -43 -6 -55 -66 -130 -72 -92 -338 -377 -427 -458 -66 -60
-121 -90 -197 -104 -75 -14 -136 -4 -173 30 l-31 27 18 137 c26 192 14 277
-48 351 l-26 30 0 -125 c-1 -69 -5 -185 -9 -259 l-9 -133 -41 -39 c-53 -51
-68 -83 -81 -166 -16 -113 -30 -411 -30 -661 0 -130 -5 -285 -12 -344 -11 -99
-11 -112 6 -142 26 -49 199 -231 283 -297 75 -59 195 -125 248 -135 l30 -5 1
143 c1 105 7 167 22 233 111 488 465 835 957 941 110 23 331 24 448 1 244 -49
453 -160 628 -336 179 -180 291 -389 340 -636 18 -89 18 -350 0 -428 -7 -32
-10 -61 -6 -65 3 -3 216 -10 473 -14 257 -4 814 -14 1237 -23 2615 -52 3955
-75 4329 -75 194 0 208 1 201 18 -4 9 -16 62 -27 117 -28 144 -21 378 16 517
35 130 90 255 160 363 76 117 233 275 350 350 399 260 898 265 1303 13 94 -58
251 -200 318 -288 224 -294 302 -675 210 -1035 -14 -55 -25 -101 -25 -102 0
-2 66 -3 148 -3 306 0 632 61 779 146 70 41 299 272 323 328 19 42 19 48 5 88
-20 59 -19 136 7 350 18 153 22 238 22 518 1 388 6 361 -105 588 -62 126 -79
151 -147 220 -122 125 -214 177 -512 295 -433 171 -917 308 -1585 446 -376 78
-434 85 -533 70 -42 -6 -106 -14 -142 -18 l-65 -6 89 -65 c48 -36 95 -70 103
-76 12 -8 -5 -21 -86 -62 -57 -29 -115 -52 -132 -52 -47 0 -94 27 -169 95
-139 128 -548 438 -795 602 -403 269 -892 525 -1315 690 -303 118 -714 245
-996 307 -151 33 -237 48 -540 96 -148 23 -243 52 -270 81 -19 21 -88 24 -234
8z m-608 -974 c37 -368 67 -681 67 -695 1 -25 0 -26 -61 -23 -130 6 -993 23
-1485 30 l-513 6 0 416 c0 229 3 487 7 574 6 147 8 160 28 173 49 32 403 90
785 128 425 43 738 63 975 62 l130 -1 67 -670z m973 639 c318 -28 615 -82
1025 -184 274 -69 477 -134 672 -215 134 -56 138 -58 148 -94 5 -20 52 -210
105 -423 l96 -387 -27 -43 c-35 -55 -54 -118 -54 -180 0 -46 -1 -48 -27 -48
-36 0 -270 23 -564 54 -561 61 -1252 116 -1460 116 -25 0 -28 6 -68 150 -110
396 -184 712 -251 1075 -17 94 -34 179 -37 189 -5 18 0 19 133 12 77 -3 216
-13 309 -22z m-3311 -371 c-12 -71 -53 -302 -90 -516 -37 -213 -71 -392 -75
-398 -13 -21 -621 97 -810 157 -116 36 -209 81 -209 101 0 69 253 313 500 482
112 76 211 130 345 187 94 39 317 111 351 113 7 1 3 -42 -12 -126z m5408 -206
c253 -120 504 -274 644 -395 88 -76 103 -101 178 -290 32 -81 106 -335 122
-418 l7 -37 -54 6 c-30 4 -110 11 -180 18 l-125 11 4 89 c4 76 1 94 -18 134
-45 92 -159 183 -296 234 -47 18 -75 22 -138 19 l-80 -3 -8 35 c-5 19 -45 166
-89 325 -45 160 -83 298 -86 308 -2 9 -2 17 1 17 3 0 56 -24 118 -53z m3600
-1242 c183 -21 259 -38 482 -112 129 -42 240 -86 315 -125 96 -49 122 -59 151
-54 47 7 60 -2 184 -120 117 -112 127 -135 74 -158 -41 -17 -107 -80 -130
-123 l-17 -33 -123 0 c-149 0 -342 23 -432 50 -82 26 -219 116 -416 275 -80
65 -181 145 -225 178 -107 82 -205 176 -205 198 0 10 10 25 23 34 25 18 82 16
319 -10z"/>
<path d="M1680 5899 c-167 -14 -352 -80 -497 -176 -76 -50 -194 -162 -255
-243 -65 -85 -152 -264 -178 -365 -95 -378 9 -765 280 -1034 361 -361 932
-411 1362 -120 81 55 212 186 267 268 293 432 240 1004 -127 1368 -224 222
-528 330 -852 302z m280 -316 c150 -35 309 -134 406 -251 361 -438 154 -1086
-397 -1238 -46 -13 -100 -18 -194 -18 -121 0 -137 3 -229 34 -198 67 -356 202
-446 381 -118 232 -111 508 17 729 49 84 199 234 283 283 166 96 370 125 560
80z"/>
<path d="M10142 5850 c-310 -68 -576 -269 -718 -543 -93 -181 -131 -350 -121
-551 13 -272 110 -498 300 -693 139 -143 302 -239 495 -290 87 -24 115 -27
267 -27 153 0 180 3 270 27 477 128 795 544 795 1039 0 483 -323 900 -798
1029 -117 31 -364 36 -490 9z m404 -300 c286 -74 492 -281 565 -570 30 -119
24 -290 -15 -405 -70 -205 -211 -368 -401 -460 -96 -46 -172 -65 -290 -72
-451 -26 -828 351 -802 802 7 117 26 194 72 290 97 203 286 358 505 415 104
26 261 27 366 0z"/>
</g>
</svg>
